<svg xmlns="http://www.w3.org/2000/svg" xmlns:xlink="http://www.w3.org/1999/xlink" viewBox="0 0 9498.55 7123.91"><defs><style>.cls-1{fill:none;}.cls-2{fill:#231f20;}.cls-3{opacity:0.59;}.cls-4{fill:url(#New_Pattern);}</style><pattern id="New_Pattern" data-name="New Pattern" width="1836.39" height="810.6" patternUnits="userSpaceOnUse" viewBox="0 0 1836.39 810.6"><rect class="cls-1" width="1836.39" height="810.6"/><path class="cls-2" d="M1409.35,620.82c-3.58,6.32-2.91,13.61.68,19.82,4.19,7.25,11.56,11.6,17.42,17.32,4.13,4,10.74-2.08,6.58-6.14-6.12-6-23.07-15.57-17-26.29,2.85-5-4.8-9.77-7.67-4.71Z"/><path class="cls-2" d="M1443.81,668.11c11.63,8.39,24.75,17.56,39.7,17.74,13.38.15,25.7-7.57,33.63-18,17.76-23.29,4.85-54.55-18.48-68.32-5-2.94-9.72,4.71-4.71,7.67,19.26,11.37,30.63,36.77,15.44,56-6.82,8.65-17.51,14.67-28.72,13.41-12-1.35-22.63-9.36-32.15-16.22-4.69-3.39-9.4,4.29-4.71,7.67Z"/><path class="cls-2" d="M1448.44,583.83c2.93-2.5,5.43-4.52,9.46-3.1,3,1.06,5.64,3.38,8.16,5.29q8.75,6.62,17.47,13.25c4.61,3.49,9.31-4.19,4.72-7.67-7.93-6-15.83-13.54-24.66-18.16-8-4.21-14.78-1.75-21.29,3.81-4.41,3.76,1.74,10.34,6.14,6.58Z"/><path class="cls-2" d="M1562.56,590.75c20.18,12.13,43.28,34.08,36.4,60.18-5.57,21.11-26.43,32.09-47.22,31.55a51.73,51.73,0,0,1-31.25-11c-4.51-3.6-9.2,4.09-4.72,7.67,18.26,14.59,45.87,16.15,66.41,5.57A48.83,48.83,0,0,0,1602.93,618c-7.91-14.88-21.4-26.32-35.66-34.89-5-3-9.69,4.67-4.71,7.67Z"/><path class="cls-2" d="M1552.62,576.08c-2.69,9.52-11.88,15.78-21.8,13.45a18.11,18.11,0,1,1,21.8-13.45c-1.21,5.62,7.4,8.26,8.63,2.58,3.1-14.34-4.77-29.32-19.5-33-14.23-3.57-29.4,5.11-33,19.49s5.11,29.41,19.49,33a27.48,27.48,0,0,0,33-19.49C1562.82,573.09,1554.2,570.48,1552.62,576.08Z"/><circle class="cls-2" cx="1441.44" cy="584.23" r="10.64" transform="translate(-105.63 424.06) rotate(-16.15)"/><path class="cls-2" d="M1427.44,618.43a10.65,10.65,0,1,1-7.76-12.9A10.64,10.64,0,0,1,1427.44,618.43Z"/><path class="cls-2" d="M1879.59,831.74c5.09-8.9,7.55-20,10.79-29.65,2-6,4-12,6.07-18,.38-1.1,1.36-6,2.35-6.56.49-.26,4.34,1.43,4.92,1.63l7.31,2.5,7.37,2.52c1.78.61,5.2,2.92,4.82-.1.15,1.2-.79,3.09-1.12,4.23-1.42,4.79-3,9.53-4.62,14.27-3.48,10.34-7.11,20.63-10.64,31-2,5.79-1.2,10.24-.24,16.3,2,12.9,4.36,25.74,6.68,38.58q1.68,9.32,3.4,18.62c1.22,6.58,4.7,17.86-5.49,18.07-4.48.09-9.19-1.93-13.43-3.18q-8.19-2.41-16.31-5.07c-10.42-3.4-20.76-7-31.06-10.78q-8.76-3.18-17.5-6.42c-5.14-1.91-10.89-3.38-15.46-6.5-3.84-2.63-7.27-6.78-5.11-11.56,1.86-4.13,6.06-7.29,9.52-10,17.57-13.93,36.46-26,55.4-38,4.48-2.82.68-10.16-3.83-7.32-18.82,11.86-37.44,24-55.08,37.6-6.52,5-15,11.57-15.06,20.67-.06,8.57,7.34,14.93,14.52,18.17,11.5,5.19,23.86,9,35.73,13.26,11.47,4.11,23,8.07,34.64,11.68,8.9,2.76,20.8,8.43,30.1,4.33,8.65-3.81,9-13.07,7.52-21.18-2.6-14.33-5.27-28.64-7.78-43-1.2-6.86-2.4-13.73-3.47-20.62-.31-2-.62-4-.88-6-.11-.88-.15-1.34-.15-1.32-.06-1.19-.16.31-.08,0,3.1-10.07,6.88-19.95,10.27-29.92,2-6,4.08-12,5.92-18,1.2-3.93,3.51-9.55-.53-12.59-2.22-1.67-5.75-2.27-8.31-3.14l-8.19-2.81c-4.35-1.49-10.86-5.2-15.55-4.2-6.73,1.43-8.42,12.2-10.28,17.69-2.78,8.22-5.49,16.46-8.31,24.66-1.75,5.1-3.38,11.4-5.89,15.8-2.63,4.6,4.39,9,7,4.32Z"/><path class="cls-2" d="M1635.56,447.36v18.12a2.5,2.5,0,0,0,5,0V447.36a2.5,2.5,0,0,0-5,0Z"/><path class="cls-2" d="M1630.91,459.4h15.26a2.5,2.5,0,0,0,0-5h-15.26a2.5,2.5,0,0,0,0,5Z"/><path class="cls-2" d="M1624.26,485.69a6.48,6.48,0,1,1-5.35-6.39,6.53,6.53,0,0,1,5.35,6.39c0,1.93,3,1.93,3,0a9.61,9.61,0,0,0-6.22-8.9,9.48,9.48,0,1,0,6.22,8.9C1627.29,483.76,1624.29,483.76,1624.26,485.69Z"/><path class="cls-2" d="M1752.73,763.67v18.12a2.5,2.5,0,0,0,5,0V763.67a2.5,2.5,0,0,0-5,0Z"/><path class="cls-2" d="M1748.08,775.71h15.26a2.5,2.5,0,1,0,0-5h-15.26a2.5,2.5,0,0,0,0,5Z"/><path class="cls-2" d="M1744.54,738.46v10.41a1.44,1.44,0,0,0,2.87,0V738.46a1.44,1.44,0,1,0-2.87,0Z"/><path class="cls-2" d="M1741.86,745.37h8.77a1.44,1.44,0,0,0,1.43-1.43,1.46,1.46,0,0,0-1.43-1.44h-8.77a1.44,1.44,0,0,0,0,2.87Z"/><path class="cls-2" d="M1731.43,774.05a4.65,4.65,0,0,1-8.3,2.87c.12.14-.05-.07-.06-.08l-.26-.4-.16-.28s-.21-.46-.12-.23a5.41,5.41,0,0,1-.37-1.45,4.59,4.59,0,0,1,.65-2.82,4.64,4.64,0,0,1,8.62,2.39c0,1.93,3,1.93,3,0a7.74,7.74,0,0,0-5-7.18,7.63,7.63,0,0,0-8.43,2.25,7.64,7.64,0,1,0,13.47,4.93C1734.46,772.12,1731.46,772.12,1731.43,774.05Z"/><path class="cls-2" d="M1429.66,801.19V811.6a1.44,1.44,0,0,0,2.88,0V801.19a1.44,1.44,0,0,0-2.88,0Z"/><path class="cls-2" d="M1427,808.11h8.77a1.44,1.44,0,0,0,0-2.88H1427a1.44,1.44,0,0,0,0,2.88Z"/><path class="cls-2" d="M1394.46,800.36a7.09,7.09,0,1,1-5.84-7,7.15,7.15,0,0,1,5.84,7c0,1.93,3,1.94,3,0a10.09,10.09,0,1,0-8.16,9.91,10.22,10.22,0,0,0,8.16-9.91C1397.49,798.43,1394.49,798.43,1394.46,800.36Z"/><path class="cls-2" d="M1804.91,575.37l-19.39,17.5c-2.36,2.14-4.68,4.79-7.31,6.61-4,2.73-7,1-9.68-1.88-13.35-14.35-26.29-29.11-39.43-43.66-3.72-4.12-8.79-8.3-11.64-13.1-3-5,1.55-8.07,4.78-11l12.14-11c3.31-3,6.54-6.13,10-9,3.18-2.66,6.61-2.86,9.67.22,5.18,5.18,9.88,10.94,14.79,16.37l25.47,28.2c3.93,4.36,16.73,14.31,10.64,20.68-3,3.12,1.6,8.08,4.61,4.93,5-5.22,5.39-12.38.73-18-1.7-2-3.56-3.94-5.34-5.91l-24.14-26.73L1760.26,507c-2.52-2.8-5.11-5.23-9-5.9-5.35-.91-9.23,1.86-12.93,5.2-7.93,7.16-16,14.16-23.81,21.5-4.64,4.39-6.33,10.91-2.83,16.61a41.35,41.35,0,0,0,4.67,5.48l45.08,49.92c2.25,2.49,4.36,5.28,7.44,6.75,6.11,2.92,11.51.1,16-4l24.65-22.25C1812.74,577.39,1808.14,572.45,1804.91,575.37Z"/><path class="cls-2" d="M1741.39,568.2l36.23-32.71c.72-.65-.35-1.7-1.06-1.06l-36.23,32.71c-.72.65.35,1.71,1.06,1.06Z"/><path class="cls-2" d="M1702.6,491.68l23.14,25.62c1.62,1.79,4.26-.86,2.65-2.65L1705.25,489c-1.62-1.79-4.27.87-2.65,2.66Z"/><path class="cls-2" d="M1795,596.25l16.21,18c2.91,3.23,7.85-1.38,4.94-4.6l-16.21-18c-2.92-3.22-7.85,1.38-4.94,4.61Z"/><path class="cls-2" d="M1803.18,635.37l35.34-31.92c5.38-4.86-2.59-12.8-8-8l-35.34,31.91c-5.38,4.86,2.59,12.8,8,8Z"/><path class="cls-2" d="M1731.92,514.48l-6.84,6.18a4.17,4.17,0,0,1-5.89-.3l-2.59-2.87a4.17,4.17,0,0,1,.3-5.89l6.84-6.18a4.19,4.19,0,0,1,5.9.3l2.58,2.87A4.16,4.16,0,0,1,1731.92,514.48Z"/><path class="cls-2" d="M1624.6,820.12a35.72,35.72,0,1,1-1.95-45.19c11.45,12.74,11.65,31.47,1.95,45.19-3.34,4.72,4.33,9.43,7.67,4.71,10.74-15.2,11.27-35.94.6-51.35s-30.3-22.89-48.47-17.93a44.68,44.68,0,0,0-7.33,83.62c19.6,9.15,42.31,2.64,55.2-14.34C1635.77,820.23,1628.08,815.53,1624.6,820.12Z"/><path class="cls-2" d="M1562.43,777.38l23.67,17.35a2.52,2.52,0,0,0,3.42-.9,2.56,2.56,0,0,0-.89-3.42L1565,773.06a2.52,2.52,0,0,0-3.42.9,2.55,2.55,0,0,0,.9,3.42Z"/><path class="cls-2" d="M1595.1,801.32l31.25,22.91a2.52,2.52,0,0,0,3.42-.9,2.55,2.55,0,0,0-.89-3.42L1597.62,797a2.52,2.52,0,0,0-3.42.89,2.56,2.56,0,0,0,.9,3.42Z"/><path class="cls-2" d="M43.2,831.74c5.09-8.9,7.56-20,10.79-29.65,2-6,4-12,6.07-18,.39-1.1,1.36-6,2.35-6.56.49-.26,4.34,1.43,4.92,1.63l7.31,2.5L82,784.19c1.78.61,5.2,2.92,4.82-.1.15,1.2-.79,3.09-1.12,4.23-1.42,4.79-3,9.53-4.61,14.27-3.48,10.34-7.12,20.63-10.65,31-2,5.79-1.19,10.24-.24,16.3,2,12.9,4.36,25.74,6.68,38.58q1.68,9.32,3.4,18.62c1.22,6.58,4.7,17.86-5.49,18.07-4.48.09-9.19-1.93-13.43-3.18q-8.19-2.41-16.3-5.07c-10.43-3.4-20.76-7-31.07-10.78q-8.76-3.18-17.5-6.42c-5.14-1.91-10.89-3.38-15.46-6.5-3.84-2.63-7.27-6.78-5.11-11.56,1.86-4.13,6.06-7.29,9.52-10,17.57-13.93,36.46-26,55.4-38,4.48-2.82.68-10.16-3.82-7.32-18.83,11.86-37.45,24-55.09,37.6-6.52,5-15,11.57-15.06,20.67-.06,8.57,7.34,14.93,14.52,18.17,11.5,5.19,23.86,9,35.74,13.26,11.46,4.11,23,8.07,34.63,11.68,8.9,2.76,20.8,8.43,30.1,4.33,8.65-3.81,9-13.07,7.52-21.18-2.6-14.33-5.27-28.64-7.78-43-1.2-6.86-2.4-13.73-3.47-20.62-.31-2-.62-4-.87-6-.12-.88-.16-1.34-.15-1.32-.07-1.19-.17.31-.09,0C80.13,829.84,83.91,820,87.31,810c2-6,4.07-12,5.91-18,1.21-3.93,3.51-9.55-.53-12.59-2.22-1.67-5.75-2.27-8.31-3.14l-8.19-2.81c-4.35-1.49-10.86-5.2-15.55-4.2-6.73,1.43-8.42,12.2-10.28,17.69-2.78,8.22-5.49,16.46-8.31,24.66-1.75,5.1-3.38,11.4-5.89,15.8-2.63,4.6,4.39,9,7,4.32Z"/><path class="cls-2" d="M66.33,766.79,92,775.31c5,1.67,7.42-6.23,2.37-7.92L84.08,764c-5-1.69-7.42,6.22-2.38,7.91L92,775.31l2.37-7.92L68.7,758.88c-5.05-1.68-7.43,6.23-2.37,7.91Z"/><path class="cls-2" d="M242.41,631.44h14.37l-3.69-4v32.44a3.89,3.89,0,0,0,3.69,4h64.61a3.89,3.89,0,0,0,4-3.7V627.75l-4,3.69h36.7a3.89,3.89,0,0,0,4-3.69V563.14a3.89,3.89,0,0,0-3.7-4h-36.7l3.69,4V553c0-4.92-7.66-5.2-7.66-.26v10.16a3.89,3.89,0,0,0,3.7,4h36.7l-3.69-4v64.61l4-3.69h-36.7a3.89,3.89,0,0,0-4,3.69v32.44l4-3.69H257.05l3.69,4V627.75a3.88,3.88,0,0,0-3.69-4H242.68c-4.93,0-5.21,7.65-.27,7.65Z"/><path class="cls-2" d="M325.35,539.76V530.7a3.89,3.89,0,0,0-3.69-4H257.05a3.89,3.89,0,0,0-4,3.7v32.44l4-3.69H220.34a3.88,3.88,0,0,0-4,3.69v64.61a3.89,3.89,0,0,0,3.7,4h11.07c4.93,0,5.21-7.65.27-7.65H220.34l3.7,4V563.14l-4,3.69h36.7a3.88,3.88,0,0,0,4-3.69V530.7l-4,3.69h64.61l-3.7-4v9.06c0,4.93,7.66,5.21,7.66.27Z"/><path class="cls-2" d="M129.62,663.83v24.65c0,3.22,5,3.22,5,0V663.83c0-3.22-5-3.22-5,0Z"/><path class="cls-2" d="M144.44,673.66H119.79c-3.21,0-3.22,5,0,5h24.65c3.22,0,3.23-5,0-5Z"/><path class="cls-2" d="M69.69,686.66v10.4a1.44,1.44,0,1,0,2.87,0v-10.4a1.44,1.44,0,1,0-2.87,0Z"/><path class="cls-2" d="M67,693.57h8.76a1.44,1.44,0,0,0,0-2.87H67a1.44,1.44,0,1,0,0,2.87Z"/><path class="cls-2" d="M196.59,407.8v18.12a2.5,2.5,0,0,0,5,0V407.8a2.5,2.5,0,0,0-5,0Z"/><path class="cls-2" d="M191.94,419.84H207.2a2.5,2.5,0,0,0,0-5H191.94a2.5,2.5,0,0,0,0,5Z"/><path class="cls-2" d="M119.5,630.62a5.25,5.25,0,1,1-4.36-5.18,5.32,5.32,0,0,1,4.36,5.18c0,1.93,3,1.94,3,0a8.39,8.39,0,0,0-5.43-7.75,8.26,8.26,0,0,0-9.92,12,8.25,8.25,0,0,0,15.35-4.22C122.53,628.69,119.53,628.69,119.5,630.62Z"/><path class="cls-2" d="M48.05,457.13a9.56,9.56,0,1,1-7.84-9.41,9.68,9.68,0,0,1,7.84,9.41,1.5,1.5,0,0,0,3,0,12.74,12.74,0,0,0-8.19-11.77,12.55,12.55,0,1,0,8.19,11.77C51.08,455.2,48.08,455.2,48.05,457.13Z"/><path class="cls-2" d="M48.26,527.45c0,.12,0,.24,0,.36,0,.28,0,0,0,0,0,.19-.08.38-.13.56l-.12.33s.14-.28,0,0-.22.39-.34.58.15-.12,0,0a1.9,1.9,0,0,0-.19.21c-.07.07-.51.44-.2.21a4.66,4.66,0,0,1-.47.3l-.2.11c-.25.14.25-.06-.11,0l-.55.15c-.1,0-.36,0,0,0l-.3,0-.59,0c-.24,0,.35.08,0,0a2.09,2.09,0,0,1-.34-.08l-.33-.1c-.08,0-.21-.13.05,0-.17-.09-.34-.17-.5-.27l-.23-.16c-.18-.11.25.24,0,0l-.47-.48c.21.21.08.12,0,0s-.13-.19-.18-.28-.29-.62-.15-.25a5.05,5.05,0,0,1-.18-.55c0-.07,0-.15-.05-.22-.07-.3,0,.27,0-.13a3.25,3.25,0,0,1,0-.54c0-.08.08-.45,0-.07a1.85,1.85,0,0,0,0-.23c0-.19.11-.37.17-.55.11-.35-.16.26,0-.06.06-.1.11-.2.17-.29s.4-.52.15-.25a4.93,4.93,0,0,1,.39-.4s.28-.26.1-.1.1-.07.12-.09c.19-.12.39-.22.59-.33l-.05,0,.33-.1.23-.06s.39-.07.14,0,.14,0,.15,0h.3l.3,0c.35,0-.24-.07.07,0l.66.18c.33.11-.15-.12,0,0a3.84,3.84,0,0,0,.35.18l.19.12.18.13c-.15-.12-.17-.13,0,0l.39.4c.26.25-.15-.26,0,0l.18.29a2.69,2.69,0,0,1,.16.29c.15.27-.07-.26,0,.06s.13.44.19.67,0,.27,0-.06c0,.16,0,.32,0,.48a1.5,1.5,0,0,0,3,0A5.89,5.89,0,0,0,47.4,522a5.8,5.8,0,0,0-6.34,1.69,5.8,5.8,0,1,0,10.2,3.77,1.5,1.5,0,0,0-3,0Z"/><path class="cls-2" d="M249.7,420.59a5.26,5.26,0,1,1-4.36-5.18,5.32,5.32,0,0,1,4.36,5.18,1.5,1.5,0,0,0,3,0,8.38,8.38,0,0,0-5.44-7.75,8.27,8.27,0,0,0-9.13,2.44,8.25,8.25,0,1,0,14.57,5.31A1.5,1.5,0,0,0,249.7,420.59Z"/><path class="cls-2" d="M235,440.86a5.87,5.87,0,1,1-4.86-5.79,5.93,5.93,0,0,1,4.86,5.79,1.5,1.5,0,0,0,3,0,9,9,0,0,0-5.83-8.33,8.87,8.87,0,1,0,5.83,8.33A1.5,1.5,0,0,0,235,440.86Z"/><path class="cls-2" d="M-33.21,635.37,2.13,603.45c5.39-4.86-2.59-12.8-7.95-8l-35.35,31.91c-5.38,4.86,2.59,12.8,8,8Z"/><path class="cls-2" d="M370,779l21.84-14.34c2.71-1.77,5.38-3.88,8.24-5.4,4.16-2.22,7.25-.51,9.51,2.94q16.2,24.69,32.42,49.37c3,4.62,7.52,9.58,9.57,14.76,2.14,5.42-3.17,7.92-6.77,10.28L431,845.69c-5.21,3.42-14.73,12.66-20.13,5.59-4.59-6-8.41-12.81-12.56-19.12l-20.8-31.69L370.59,790c-2.55-3.87-4.57-7.91.17-11.54,3.45-2.64-1.18-7.56-4.6-4.94-9.54,7.32-3.66,16.41,1.27,23.92l19.87,30.26q8.31,12.66,16.63,25.33c2.07,3.16,4.21,6.05,8,7.34,5.2,1.77,9.43-.33,13.63-3.09,8.89-5.83,17.91-11.51,26.69-17.52,5.45-3.74,8.38-10.2,5.33-16.57a51,51,0,0,0-3.66-5.77l-36.78-56c-1.67-2.55-3.29-5.59-5.72-7.46-5.64-4.31-11.69-2.52-17,1L366.9,773C363.29,775.36,366.39,781.36,370,779Z"/><path class="cls-2" d="M432.1,795.51l-40.8,26.8c-.81.52-.06,1.82.75,1.29l40.81-26.79c.8-.53.05-1.83-.76-1.3Z"/><path class="cls-2" d="M383.54,760l-13.27-20.22c-2.37-3.6-8.37-.5-6,3.13l13.27,20.22c2.37,3.6,8.37.5,6-3.13Z"/><path class="cls-2" d="M381.73,719.42l-39.81,26.14c-6,4-.4,13.7,5.68,9.71l39.81-26.13c6-4,.39-13.71-5.68-9.72Z"/><path class="cls-2" d="M1834.85,294.29a52.27,52.27,0,0,1,10.64,10.1c1.51,1.85,4.83,1.63,6.37,0,9.58-10.18,22.7-19.57,37.48-17.45,14.48,2.08,25.41,13.46,29,27.29,1.44,5.6,10.12,3.23,8.68-2.4-4.29-16.77-17.82-30.74-35.24-33.57-18.09-2.94-34.28,7.06-46.24,19.77h6.37a60.31,60.31,0,0,0-12.47-11.51c-4.76-3.32-9.26,4.48-4.54,7.77Z"/><path class="cls-2" d="M1773.54,314.91c4-20.18,22.53-30,42.06-28,5.76.6,5.72-8.41,0-9-23.28-2.39-46,10.82-50.74,34.62-1.13,5.66,7.54,8.08,8.68,2.4Z"/><path class="cls-2" d="M1914.37,341.7c-9.09,17.27-25.81,28.64-41.8,39-9.12,5.9-18.7,10.95-28,16.61h4.54a310.45,310.45,0,0,1-41.42-26.39c-12.29-9.27-24.19-19-30.89-33.24-2.47-5.23-10.23-.67-7.77,4.54,6.63,14.06,18,24,30.08,33.38a314.63,314.63,0,0,0,40.44,26.78c3.94,2.17,6.77,4.16,10.89,2,3-1.59,5.94-3.31,8.87-5,10.39-6,20.6-12.42,30.35-19.44,12.85-9.24,24.94-19.41,32.43-33.65,2.7-5.12-5.07-9.67-7.77-4.54Z"/><path class="cls-2" d="M1745.86,329.78h50.28l-2.5-2q4,17.13,8,34.28a2.26,2.26,0,0,0,4.46,0q10.49-42.47,21-84.92,1.5-6.1,3-12.22l-4.47,0q9,44,18,88,1.27,6.27,2.56,12.54c.41,2,3.54,2.91,4.32.59q9.7-29.14,19.42-58.28l-4.31-.59,10.29,43.42a2.27,2.27,0,0,0,4.31.59q4-8.56,8-17.14l-1.81,1.37H1947c2.89,0,2.32-4.47-.55-4.47h-60.56a2.24,2.24,0,0,0-1.81,1.37q-4,8.58-8,17.14l4.31.59q-5.14-21.71-10.28-43.42c-.46-1.95-3.53-3-4.31-.59l-19.43,58.28,4.31.59-18-88q-1.29-6.27-2.57-12.54a2.26,2.26,0,0,0-4.46,0q-10.5,42.45-21,84.91-1.52,6.12-3,12.23l4.46,0q-4-17.15-8-34.28a2.34,2.34,0,0,0-2.5-2h-50.29c-2.89,0-2.31,4.47.55,4.47Z"/><path class="cls-2" d="M1482.85,131.66c5.46-16.33,22.73-27.83,40-24.46,12.63,2.46,22.69,11,29.2,21.84,6.69,11.14,10.25,24.18,11.24,37.09.8,10.48,1.11,25.7-5.65,34.53-4,5.22-11.58,9.26-18.24,7.51-3.73-1-5.62-3.82-8-6.6a58.79,58.79,0,0,0-8.83-8.66c-3.49-2.7-8.92-5.7-13-2.32-4.29,3.57-2.7,10.87-1.56,15.47,2.15,8.76,7.31,21.43-2.91,27.19-5.9,3.32-13.84,2.49-20.08.66-15.44-4.52-29.46-15.53-39.59-27.78-11.16-13.48-19.31-32.15-12.81-49.54,6.75-18.09,28-25.31,45.69-20.78,4.48,1.14,6.58-5.76,2.07-6.91-17-4.35-36.5.11-48,13.95s-11.23,33.07-4.32,49c7.42,17.06,21.53,31.4,37.32,40.95,12.46,7.54,31.41,15.12,44.94,5.69,8.37-5.83,9.29-16.17,7.05-25.4-1.15-4.77-3.41-9.8-3.35-14.78,0-1.49.85-2.31-.36-2,1.14-.31,3,1.23,3.78,1.79,7.24,5,11,14.6,19.86,17,7.2,1.95,15-.53,20.78-4.9,11.26-8.47,12.82-24.71,12.65-37.8-.19-14.7-3.39-29.71-10.17-42.82-7.55-14.59-20.25-26.48-36.79-29.48-20.83-3.77-41.29,9.81-47.88,29.51-1.47,4.4,5.43,6.48,6.91,2.07Z"/><path class="cls-2" d="M1879.59,21.14c5.09-8.9,7.55-20,10.79-29.66,2-6,4-12,6.07-18,.38-1.11,1.36-6,2.35-6.56.49-.27,4.34,1.43,4.92,1.63l7.31,2.5,7.37,2.52c1.78.6,5.2,2.92,4.82-.11.15,1.21-.79,3.1-1.12,4.23-1.42,4.8-3,9.54-4.62,14.27-3.48,10.35-7.11,20.64-10.64,31-2,5.79-1.2,10.25-.24,16.31,2,12.89,4.36,25.74,6.68,38.58q1.68,9.32,3.4,18.62c1.22,6.58,4.7,17.86-5.49,18.07-4.48.09-9.19-1.93-13.43-3.18q-8.19-2.41-16.31-5.08c-10.42-3.4-20.76-7-31.06-10.77q-8.76-3.18-17.5-6.43c-5.14-1.9-10.89-3.37-15.46-6.5-3.84-2.63-7.27-6.77-5.11-11.55,1.86-4.13,6.06-7.29,9.52-10,17.57-13.92,36.46-26,55.4-38,4.48-2.82.68-10.16-3.83-7.32-18.82,11.86-37.44,24-55.08,37.59-6.52,5-15,11.58-15.06,20.68-.06,8.57,7.34,14.93,14.52,18.17,11.5,5.19,23.86,9,35.73,13.26,11.47,4.1,23,8.07,34.64,11.67,8.9,2.77,20.8,8.44,30.1,4.34,8.65-3.81,9-13.08,7.52-21.18-2.6-14.33-5.27-28.65-7.78-43-1.2-6.87-2.4-13.74-3.47-20.62-.31-2-.62-4-.88-6-.11-.88-.15-1.34-.15-1.31-.06-1.2-.16.31-.08,0,3.1-10.06,6.88-20,10.27-29.91,2-6,4.08-12,5.92-18,1.2-3.94,3.51-9.55-.53-12.59-2.22-1.67-5.75-2.28-8.31-3.15l-8.19-2.8c-4.35-1.49-10.86-5.21-15.55-4.21-6.73,1.44-8.42,12.21-10.28,17.7-2.78,8.22-5.49,16.46-8.31,24.66-1.75,5.1-3.38,11.4-5.89,15.79-2.63,4.6,4.39,9,7,4.33Z"/><path class="cls-2" d="M1836.42,49.39c25.5,8.55,50.82,17.62,76.15,26.65,5,1.79,7.37-6.13,2.37-7.91-25.33-9-50.65-18.1-76.15-26.65-5-1.69-7.41,6.22-2.37,7.91Z"/><path class="cls-2" d="M1390.39,18.11V42.76c0,3.22,5,3.22,5,0V18.11c0-3.22-5-3.22-5,0Z"/><path class="cls-2" d="M1405.22,27.94h-24.65c-3.22,0-3.23,5,0,5h24.65c3.21,0,3.22-5,0-5Z"/><path class="cls-2" d="M1429.66-9.41V1a1.44,1.44,0,0,0,2.88,0V-9.41a1.46,1.46,0,0,0-1.44-1.44,1.46,1.46,0,0,0-1.44,1.44Z"/><path class="cls-2" d="M1628,87.16c0,.14,0,.28,0,.41,0,.3,0,.07,0,0a3.71,3.71,0,0,1-.15.64c0,.12-.08.25-.13.37,0-.06.13-.24,0,0s-.25.45-.39.67.12-.14,0,0a2.39,2.39,0,0,1-.22.23c-.07.07-.52.46-.27.27a3.84,3.84,0,0,1-.54.35,1.67,1.67,0,0,1-.23.12c-.15.08-.15.08,0,0l-.19.07a5.79,5.79,0,0,1-.63.18c-.08,0-.37,0-.06,0l-.34,0c-.23,0-.45,0-.68,0s.33.08-.07,0l-.38-.09-.38-.12h0a4.4,4.4,0,0,1-.56-.31l-.27-.18c-.19-.14.24.24-.05,0s-.36-.36-.53-.55c.18.2,0,0,0,0l-.21-.33-.13-.22s-.19-.43-.06-.11a4.48,4.48,0,0,1-.2-.62c0-.09,0-.18-.06-.26s0-.18,0,0c0-.07,0-.14,0-.2,0-.21,0-.41,0-.62,0,0,.07-.48,0-.14l.06-.26a5,5,0,0,1,.18-.63c.13-.38-.15.24.05-.12.07-.11.12-.22.19-.34s.11-.18.17-.27.23-.27,0,0a4.78,4.78,0,0,1,.44-.46s.31-.27.14-.13.16-.12.16-.11a4.44,4.44,0,0,1,.67-.38h0c.13,0,.25-.09.38-.12l.25-.07s.42-.07.2,0,.21,0,.2,0h.34l.34,0c.36,0-.17-.06.14,0l.76.21c.39.13-.16-.08.06,0a3.72,3.72,0,0,1,.39.21,1.64,1.64,0,0,1,.22.14l.21.14c-.14-.1-.14-.1,0,0l.46.45c.28.29-.14-.23.08.1l.21.32c.07.12.12.23.18.34.16.27-.05-.2.06.12s.15.5.21.76c0,.06,0,.29,0,0,0,.18,0,.36,0,.54a1.5,1.5,0,1,0,3,0,6.52,6.52,0,0,0-4.26-6,6.39,6.39,0,0,0-7,1.88A6.41,6.41,0,1,0,1631,87.16a1.5,1.5,0,0,0-3,0Z"/><path class="cls-2" d="M1601.71,261.62V272a1.44,1.44,0,0,0,2.87,0V261.62a1.44,1.44,0,0,0-2.87,0Z"/><path class="cls-2" d="M1599,268.53h8.76a1.44,1.44,0,1,0,0-2.87H1599a1.44,1.44,0,1,0,0,2.87Z"/><path class="cls-2" d="M1588,298v18.12a2.5,2.5,0,0,0,5,0V298a2.5,2.5,0,0,0-5,0Z"/><path class="cls-2" d="M1583.36,310h15.26a2.5,2.5,0,0,0,0-5h-15.26a2.5,2.5,0,0,0,0,5Z"/><path class="cls-2" d="M1569,288a6.48,6.48,0,1,1-5.35-6.39A6.53,6.53,0,0,1,1569,288c0,1.93,3,1.94,3,0a9.61,9.61,0,0,0-6.22-8.9,9.49,9.49,0,0,0-11.42,13.75A9.49,9.49,0,0,0,1572,288C1572,286.05,1569,286.05,1569,288Z"/><path class="cls-2" d="M1711.19,159.28v10.41a1.44,1.44,0,1,0,2.87,0V159.28a1.44,1.44,0,0,0-2.87,0Z"/><path class="cls-2" d="M1708.52,166.2h8.76a1.44,1.44,0,1,0,0-2.87h-8.76a1.44,1.44,0,1,0,0,2.87Z"/><path class="cls-2" d="M1740.47,178.48V196.6a2.5,2.5,0,0,0,5,0V178.48a2.5,2.5,0,0,0-5,0Z"/><path class="cls-2" d="M1735.81,190.52h15.26a2.5,2.5,0,0,0,0-5h-15.26a2.5,2.5,0,0,0,0,5Z"/><path class="cls-2" d="M1792.11,156.09a7.71,7.71,0,1,1-6.35-7.6,7.82,7.82,0,0,1,6.35,7.6,1.5,1.5,0,0,0,3,0,10.88,10.88,0,0,0-7-10.05,10.71,10.71,0,1,0,7,10.05A1.5,1.5,0,0,0,1792.11,156.09Z"/><path class="cls-2" d="M1765.62,227a4.64,4.64,0,0,1-8.3,2.87l-.06-.08c-.1-.13-.18-.26-.27-.4l-.15-.28s-.22-.45-.12-.23a4.75,4.75,0,0,1-.37-1.45,4.61,4.61,0,0,1,.64-2.82,4.65,4.65,0,0,1,8.63,2.39,1.5,1.5,0,0,0,3,0,7.78,7.78,0,0,0-5-7.18,7.67,7.67,0,0,0-8.43,2.25,7.64,7.64,0,1,0,13.48,4.93A1.5,1.5,0,0,0,1765.62,227Z"/><path class="cls-2" d="M1624.6,9.51a36.07,36.07,0,0,1-38.83,12.81,36,36,0,0,1-25.43-32.5,36.09,36.09,0,0,1,22.16-34.77,36,36,0,0,1,40.15,9.28c11.45,12.74,11.65,31.46,1.95,45.18-3.34,4.73,4.33,9.44,7.67,4.72,10.74-15.2,11.27-35.94.6-51.35S1602.57-60,1584.4-55a45.23,45.23,0,0,0-32.92,39.29,45,45,0,0,0,25.59,44.33c19.6,9.15,42.31,2.63,55.2-14.34C1635.77,9.62,1628.08,4.93,1624.6,9.51Z"/><path class="cls-2" d="M1595.1-9.28l31.25,22.9a2.51,2.51,0,0,0,3.42-.89,2.55,2.55,0,0,0-.89-3.42L1597.62-13.6a2.52,2.52,0,0,0-3.42.9,2.56,2.56,0,0,0,.9,3.42Z"/><path class="cls-2" d="M916.65,699.6a52,52,0,0,1,10.65,10.09c1.5,1.85,4.83,1.64,6.36,0,9.59-10.18,22.7-19.57,37.48-17.45,14.48,2.08,25.42,13.46,29,27.29,1.43,5.6,10.12,3.23,8.68-2.4-4.3-16.76-17.83-30.74-35.25-33.57-18.08-2.94-34.28,7.06-46.23,19.77h6.36a60.08,60.08,0,0,0-12.47-11.51c-4.76-3.32-9.26,4.48-4.54,7.78Z"/><path class="cls-2" d="M855.35,720.21c4-20.18,22.52-30,42.06-28,5.75.59,5.71-8.42,0-9-23.28-2.4-46,10.81-50.74,34.62-1.13,5.65,7.54,8.07,8.68,2.39Z"/><path class="cls-2" d="M996.18,747c-9.1,17.27-25.81,28.64-41.81,39-9.12,5.9-18.69,11-27.94,16.61H931a310.75,310.75,0,0,1-41.42-26.38c-12.29-9.28-24.19-19-30.89-33.25-2.47-5.23-10.23-.67-7.78,4.55,6.63,14.05,18,24,30.09,33.37a313.58,313.58,0,0,0,40.44,26.78c3.93,2.17,6.77,4.16,10.88,2,3-1.59,5.94-3.31,8.88-5,10.39-6,20.59-12.43,30.35-19.45,12.85-9.24,24.93-19.41,32.43-33.64,2.69-5.13-5.07-9.68-7.77-4.55Z"/><path class="cls-2" d="M827.67,735.08H878l-2.51-2q4,17.14,8,34.28a2.26,2.26,0,0,0,4.46,0q10.5-42.45,21-84.91,1.51-6.12,3-12.23l-4.46,0,18,88q1.29,6.27,2.57,12.54c.41,2,3.54,2.91,4.31.59l19.43-58.28-4.31-.59q5.14,21.71,10.28,43.42a2.27,2.27,0,0,0,4.31.59q4-8.56,8-17.14l-1.8,1.37h60.57c2.89,0,2.31-4.46-.55-4.46H967.68a2.22,2.22,0,0,0-1.8,1.36l-8,17.15,4.31.59L951.9,712c-.46-2-3.52-3-4.31-.59q-9.71,29.15-19.43,58.28l4.32.59q-9-44-18-88l-2.56-12.54a2.26,2.26,0,0,0-4.47,0q-10.49,42.45-21,84.91-1.5,6.12-3,12.23l4.47,0q-4-17.13-8-34.28a2.36,2.36,0,0,0-2.51-2H827.12c-2.9,0-2.32,4.47.55,4.47Z"/><path class="cls-2" d="M564.65,537c5.46-16.33,22.74-27.82,40-24.46,12.62,2.46,22.69,11,29.19,21.84,6.69,11.14,10.26,24.19,11.24,37.09.8,10.48,1.12,25.71-5.64,34.53-4,5.22-11.58,9.26-18.25,7.51-3.72-1-5.62-3.81-8-6.6a59.26,59.26,0,0,0-8.83-8.66c-3.5-2.7-8.92-5.7-13-2.32-4.29,3.57-2.69,10.87-1.56,15.47,2.16,8.76,7.32,21.44-2.9,27.19-5.9,3.32-13.84,2.49-20.08.67-15.44-4.52-29.46-15.54-39.59-27.78C516.13,598,508,579.29,514.47,561.89c6.76-18.08,28-25.3,45.69-20.78,4.49,1.14,6.59-5.75,2.07-6.91-17-4.35-36.49.12-48,13.95s-11.23,33.07-4.33,49c7.42,17.06,21.53,31.41,37.32,41,12.47,7.54,31.42,15.11,44.95,5.68,8.37-5.83,9.28-16.17,7-25.4-1.15-4.76-3.4-9.8-3.34-14.77,0-1.5.84-2.32-.36-2,1.14-.31,3,1.23,3.78,1.79,7.23,5,10.94,14.6,19.85,17,7.21,2,15-.52,20.78-4.9,11.27-8.47,12.82-24.71,12.65-37.79-.19-14.71-3.38-29.72-10.17-42.83-7.55-14.59-20.24-26.48-36.79-29.48-20.82-3.77-41.29,9.81-47.87,29.52-1.48,4.4,5.43,6.47,6.9,2.06Z"/><path class="cls-2" d="M491.16,215.52c-3.58,6.32-2.91,13.6.67,19.81,4.19,7.26,11.56,11.61,17.43,17.33,4.13,4,10.73-2.08,6.58-6.14-6.12-6-23.08-15.58-17-26.29,2.84-5-4.81-9.77-7.67-4.71Z"/><path class="cls-2" d="M525.61,262.81c11.64,8.39,24.76,17.56,39.7,17.74,13.39.15,25.7-7.58,33.63-18,17.76-23.29,4.86-54.55-18.48-68.32-5-2.94-9.72,4.71-4.71,7.67,19.26,11.36,30.64,36.77,15.44,56-6.81,8.64-17.51,14.66-28.72,13.41-12-1.35-22.62-9.36-32.14-16.22-4.7-3.39-9.4,4.29-4.72,7.67Z"/><path class="cls-2" d="M530.24,178.53c2.94-2.51,5.44-4.52,9.46-3.1,3,1.06,5.64,3.38,8.17,5.29q8.75,6.61,17.47,13.25c4.6,3.49,9.3-4.2,4.71-7.67-7.92-6-15.82-13.54-24.65-18.16-8-4.21-14.78-1.75-21.29,3.81-4.41,3.76,1.74,10.34,6.13,6.58Z"/><path class="cls-2" d="M644.36,185.45c20.19,12.13,43.28,34.08,36.4,60.18-5.57,21.11-26.42,32.08-47.22,31.55a51.79,51.79,0,0,1-31.25-11c-4.51-3.6-9.19,4.09-4.71,7.67C615.84,288.43,643.44,290,664,279.4a48.81,48.81,0,0,0,20.74-66.73c-7.91-14.88-21.4-26.33-35.65-34.89-5-3-9.7,4.67-4.72,7.67Z"/><path class="cls-2" d="M634.43,170.78c-2.69,9.51-11.88,15.77-21.81,13.45a18.12,18.12,0,1,1,21.81-13.45c-1.22,5.62,7.39,8.26,8.62,2.58,3.11-14.34-4.76-29.32-19.49-33-14.24-3.57-29.41,5.11-33,19.49s5.11,29.41,19.49,33a27.47,27.47,0,0,0,33-19.49C644.62,167.79,636,165.18,634.43,170.78Z"/><circle class="cls-2" cx="523.25" cy="178.92" r="10.64" transform="translate(-16.98 297.06) rotate(-31.21)"/><path class="cls-2" d="M509.24,213.13a10.64,10.64,0,1,1-7.75-12.9A10.64,10.64,0,0,1,509.24,213.13Z"/><path class="cls-2" d="M961.39,426.44c5.09-8.9,7.56-20,10.8-29.65,2-6,4-12,6.07-18,.38-1.1,1.36-6,2.34-6.56.5-.27,4.35,1.43,4.92,1.63l7.32,2.5,7.36,2.52c1.78.6,5.21,2.92,4.82-.11.16,1.21-.78,3.1-1.12,4.23-1.41,4.8-3,9.54-4.61,14.27-3.48,10.35-7.12,20.64-10.65,31-2,5.8-1.19,10.25-.23,16.31,2,12.89,4.36,25.74,6.68,38.58q1.68,9.31,3.4,18.62c1.21,6.58,4.69,17.86-5.5,18.07-4.48.09-9.19-1.93-13.42-3.18q-8.19-2.42-16.31-5.08c-10.42-3.4-20.76-7-31.06-10.77q-8.78-3.18-17.5-6.43c-5.15-1.9-10.9-3.37-15.46-6.5-3.84-2.63-7.27-6.77-5.12-11.55,1.86-4.13,6.07-7.29,9.53-10,17.56-13.93,36.46-26,55.4-38,4.47-2.82.67-10.16-3.83-7.32-18.83,11.86-37.45,24-55.08,37.6-6.53,5-15,11.57-15.06,20.67-.06,8.57,7.34,14.93,14.51,18.17,11.5,5.19,23.87,9,35.74,13.26,11.47,4.11,23,8.07,34.63,11.68,8.91,2.76,20.8,8.43,30.11,4.33,8.64-3.81,9-13.07,7.51-21.18-2.59-14.33-5.27-28.64-7.78-43-1.2-6.87-2.39-13.73-3.46-20.62-.32-2-.62-4-.88-6-.11-.89-.15-1.34-.15-1.32-.07-1.19-.17.31-.08,0,3.1-10.06,6.87-19.94,10.27-29.91,2-6,4.08-11.95,5.92-18,1.2-3.93,3.5-9.55-.54-12.59-2.22-1.67-5.74-2.27-8.3-3.15l-8.2-2.8C990,366.68,983.52,363,978.84,364c-6.73,1.44-8.43,12.21-10.28,17.7-2.78,8.22-5.5,16.46-8.31,24.66-1.75,5.1-3.38,11.4-5.9,15.8-2.63,4.6,4.39,9,7,4.32Z"/><path class="cls-2" d="M984.52,361.49l25.69,8.51c5,1.68,7.42-6.22,2.37-7.91l-10.31-3.45c-5-1.68-7.42,6.23-2.37,7.92l10.31,3.44,2.37-7.91-25.69-8.52c-5-1.67-7.42,6.24-2.37,7.92Z"/><path class="cls-2" d="M918.23,454.69c25.49,8.55,50.82,17.62,76.14,26.65,5,1.79,7.38-6.13,2.37-7.91-25.32-9-50.65-18.1-76.14-26.65-5-1.69-7.42,6.22-2.37,7.91Z"/><path class="cls-2" d="M1160.6,226.14H1175l-3.7-4v32.44a3.89,3.89,0,0,0,3.7,4h64.6a3.89,3.89,0,0,0,4-3.69V222.45l-4,3.69h36.71a3.88,3.88,0,0,0,4-3.69V157.84a3.88,3.88,0,0,0-3.69-4h-36.71l3.7,4V147.67c0-4.92-7.66-5.21-7.66-.26v10.16a3.88,3.88,0,0,0,3.69,4h36.71l-3.7-4v64.61l4-3.7h-36.71a3.89,3.89,0,0,0-4,3.7v32.44l4-3.69h-64.61l3.7,4V222.45a3.89,3.89,0,0,0-3.7-4h-14.37c-4.93,0-5.21,7.66-.27,7.66Z"/><path class="cls-2" d="M1243.55,134.46v-9.07a3.89,3.89,0,0,0-3.7-4h-64.61a3.89,3.89,0,0,0-4,3.7v32.44l4-3.69h-36.7a3.88,3.88,0,0,0-4,3.69v64.61a3.88,3.88,0,0,0,3.69,4h11.08c4.92,0,5.21-7.66.26-7.66h-11.07l3.69,4V157.84l-4,3.69H1175a3.88,3.88,0,0,0,4-3.69V125.39l-4,3.7h64.6l-3.69-4v9.06c0,4.93,7.66,5.21,7.66.27Z"/><path class="cls-2" d="M1186,663.37a37.76,37.76,0,0,1-17.18-42.15c2.06-7.51,6.91-14.31,10.84-21q8.78-14.91,17.56-29.8c3.6-6.1,6.93-12.49,10.92-18.35,9.59-14,28-19.57,43.88-13.76,15.62,5.72,25.5,21.69,24.23,38.17-.72,9.39-5.63,16.86-10.25,24.7l-17.24,29.24c-4.18,7.1-8.11,14.46-12.65,21.35-10.9,16.55-33.1,21.21-50.11,11.56-5-2.85-9.77,4.8-4.71,7.67a47.11,47.11,0,0,0,52-3.19c8.24-6.27,12.88-15.25,18-24l19.53-33.12c4.88-8.3,10.91-16.76,13.2-26.22a46.46,46.46,0,0,0-66.85-52.16c-10.71,5.67-16.77,15-22.69,25q-9.57,16.26-19.16,32.5c-5.33,9-12.28,18.53-15.13,28.76a46.91,46.91,0,0,0,21.1,52.4C1186.23,674,1191,666.32,1186,663.37Z"/><path class="cls-2" d="M1185.94,587.39l30.84,18.18c5,2.93,9.72-4.72,4.71-7.67l-30.84-18.18c-5-2.94-9.72,4.72-4.71,7.67Z"/><path class="cls-2" d="M1231.61,614.31l23.72,14c5,2.93,9.73-4.72,4.72-7.67l-23.73-14c-5-2.93-9.72,4.72-4.71,7.67Z"/><path class="cls-2" d="M1047.81,258.53v24.65c0,3.22,5,3.22,5,0V258.53c0-3.22-5-3.22-5,0Z"/><path class="cls-2" d="M1062.64,268.35H1038c-3.22,0-3.22,5,0,5h24.65c3.22,0,3.22-5,0-5Z"/><path class="cls-2" d="M987.88,281.35v10.41a1.44,1.44,0,1,0,2.87,0V281.35a1.44,1.44,0,0,0-2.87,0Z"/><path class="cls-2" d="M985.21,288.27H994a1.44,1.44,0,0,0,0-2.88h-8.76a1.44,1.44,0,0,0,0,2.88Z"/><path class="cls-2" d="M717.37,42.06V60.18a2.5,2.5,0,0,0,5,0V42.06a2.5,2.5,0,0,0-5,0Z"/><path class="cls-2" d="M712.71,54.1H728a2.5,2.5,0,0,0,0-5H712.71a2.5,2.5,0,0,0,0,5Z"/><path class="cls-2" d="M1114.78,2.5V20.62a2.5,2.5,0,0,0,5,0V2.5a2.5,2.5,0,0,0-5,0Z"/><path class="cls-2" d="M1110.13,14.54h15.26a2.5,2.5,0,0,0,0-5h-15.26a2.5,2.5,0,0,0,0,5Z"/><path class="cls-2" d="M706.07,80.39A6.48,6.48,0,1,1,700.72,74a6.54,6.54,0,0,1,5.35,6.39,1.5,1.5,0,0,0,3,0,9.63,9.63,0,0,0-6.22-8.9,9.48,9.48,0,1,0,6.22,8.9A1.5,1.5,0,0,0,706.07,80.39Z"/><path class="cls-2" d="M834.54,358.37v18.12a2.5,2.5,0,0,0,5,0V358.37a2.5,2.5,0,1,0-5,0Z"/><path class="cls-2" d="M829.89,370.41h15.26a2.5,2.5,0,0,0,0-5H829.89a2.5,2.5,0,0,0,0,5Z"/><path class="cls-2" d="M826.34,333.16v10.4a1.44,1.44,0,1,0,2.87,0v-10.4a1.44,1.44,0,1,0-2.87,0Z"/><path class="cls-2" d="M823.67,340.07h8.76a1.44,1.44,0,1,0,0-2.87h-8.76a1.44,1.44,0,1,0,0,2.87Z"/><path class="cls-2" d="M813.24,368.75a4.65,4.65,0,0,1-8.3,2.87l-.06-.08c-.1-.13-.18-.27-.27-.41l-.15-.28s-.22-.45-.12-.22a5,5,0,0,1-.37-1.46,4.64,4.64,0,0,1,.64-2.81,4.64,4.64,0,0,1,8.63,2.39,1.5,1.5,0,0,0,3,0,7.77,7.77,0,0,0-5-7.18,7.65,7.65,0,0,0-8.44,2.25,7.64,7.64,0,1,0,13.48,4.93A1.5,1.5,0,0,0,813.24,368.75Z"/><path class="cls-2" d="M472.2,423.41v24.65c0,3.22,5,3.22,5,0V423.41c0-3.21-5-3.22-5,0Z"/><path class="cls-2" d="M487,433.24H462.37c-3.21,0-3.22,5,0,5H487c3.22,0,3.22-5,0-5Z"/><path class="cls-2" d="M511.47,395.89V406.3a1.44,1.44,0,0,0,2.87,0V395.89a1.44,1.44,0,0,0-2.87,0Z"/><path class="cls-2" d="M508.8,402.8h8.76a1.44,1.44,0,1,0,0-2.87H508.8a1.44,1.44,0,1,0,0,2.87Z"/><path class="cls-2" d="M476.27,395.06a7.1,7.1,0,1,1-5.85-7,7.17,7.17,0,0,1,5.85,7c0,1.93,3,1.94,3,0a10.24,10.24,0,0,0-6.62-9.47,10.1,10.1,0,0,0-12.16,14.63,10.1,10.1,0,0,0,18.78-5.16C479.3,393.13,476.3,393.13,476.27,395.06Z"/><path class="cls-2" d="M709.75,492.47c0,.13,0,.27,0,.41,0,.29,0,.06,0,0,0,.21-.09.43-.15.64s-.08.25-.13.37c0-.06.13-.24,0,0s-.25.44-.4.66.13-.13,0,.05l-.21.23c-.07.07-.52.47-.27.28a6.22,6.22,0,0,1-.54.35,1.67,1.67,0,0,0-.23.12h0l-.18.07q-.32.11-.63.18c-.08,0-.37.05-.07,0l-.33,0c-.23,0-.46,0-.69,0s.34.08-.06,0c-.13,0-.26,0-.39-.09s-.25-.08-.37-.12h0a3.91,3.91,0,0,1-.57-.31,1.51,1.51,0,0,1-.26-.18c-.2-.14.23.24-.05,0l-.54-.55c.19.21,0,.05,0,0l-.21-.32-.12-.23s-.2-.43-.07-.11a4.48,4.48,0,0,1-.2-.62L703,493h0a1.36,1.36,0,0,1,0-.2,4.28,4.28,0,0,1,0-.62c0-.05.07-.48,0-.14,0-.08,0-.17,0-.26s.12-.42.19-.63c.12-.38-.15.24.05-.11l.18-.34.18-.27c0-.07.23-.28,0-.06l.44-.46.15-.13c-.17.14.16-.11.15-.11a4.54,4.54,0,0,1,.68-.38h0l.37-.12.26-.06s.42-.08.19-.05.21,0,.21,0h.34l.34,0c.35,0-.18-.06.13,0s.51.13.76.21-.16-.08.06,0,.27.13.4.21l.22.14.21.15c-.14-.11-.14-.1,0,0l.45.46c.28.28-.14-.24.08.09.08.11.15.22.22.33l.18.34c.15.27-.05-.21,0,.11s.15.51.22.76c0,.07,0,.29,0,0a4.93,4.93,0,0,1,0,.55,1.5,1.5,0,0,0,3,0,6.52,6.52,0,0,0-4.25-6,6.43,6.43,0,0,0-7,1.88,6.41,6.41,0,1,0,11.29,4.16,1.5,1.5,0,0,0-3,0Z"/><path class="cls-2" d="M683.52,666.92v10.41a1.44,1.44,0,1,0,2.87,0V666.92a1.46,1.46,0,0,0-1.44-1.43,1.44,1.44,0,0,0-1.43,1.43Z"/><path class="cls-2" d="M680.84,673.84h8.77a1.44,1.44,0,0,0,0-2.88h-8.77a1.44,1.44,0,0,0,0,2.88Z"/><path class="cls-2" d="M669.82,703.26v18.12a2.5,2.5,0,0,0,5,0V703.26a2.5,2.5,0,0,0-5,0Z"/><path class="cls-2" d="M665.17,715.29h15.26a2.5,2.5,0,0,0,0-5H665.17a2.5,2.5,0,0,0,0,5Z"/><path class="cls-2" d="M650.8,693.28a6.48,6.48,0,1,1-5.36-6.39,6.57,6.57,0,0,1,5.36,6.39,1.5,1.5,0,0,0,3,0,9.66,9.66,0,0,0-6.23-8.9,9.49,9.49,0,0,0-11.41,13.75,9.49,9.49,0,0,0,17.64-4.85A1.5,1.5,0,0,0,650.8,693.28Z"/><path class="cls-2" d="M1037.7,225.32a5.26,5.26,0,1,1-4.36-5.18,5.3,5.3,0,0,1,4.36,5.18,1.5,1.5,0,0,0,3,0,8.38,8.38,0,0,0-5.44-7.75,8.27,8.27,0,0,0-9.13,2.44,8.25,8.25,0,1,0,14.57,5.31A1.5,1.5,0,0,0,1037.7,225.32Z"/><path class="cls-2" d="M966.24,51.83a9.55,9.55,0,1,1-7.83-9.41,9.63,9.63,0,0,1,7.83,9.41c0,1.93,3,1.93,3,0a12.56,12.56,0,1,0-10.18,12.32,12.73,12.73,0,0,0,10.18-12.32A1.5,1.5,0,0,0,966.24,51.83Z"/><path class="cls-2" d="M966.46,122.15c0,.12,0,.24,0,.36,0,.28,0,0,0-.05a5.07,5.07,0,0,1-.13.56,3,3,0,0,1-.11.32s.14-.28,0,0-.22.39-.35.58.16-.12,0,0a1.9,1.9,0,0,0-.19.21c-.08.07-.52.44-.2.21a4.66,4.66,0,0,1-.47.3l-.2.11c-.25.14.25-.07-.12.05-.18,0-.36.11-.55.15s-.36,0,0,0l-.29,0c-.2,0-.4,0-.6,0s.36.08,0,0l-.33-.08-.33-.1c-.09,0-.22-.13,0,0-.16-.1-.33-.17-.49-.27l-.23-.16c-.19-.11.24.24,0,0l-.46-.48c.2.2.08.11,0,0l-.18-.29c0-.09-.29-.61-.15-.25a4.27,4.27,0,0,1-.18-.54,1.89,1.89,0,0,0,0-.23c-.06-.3,0,.28,0-.12a4.86,4.86,0,0,1,0-.54c0-.09.08-.45,0-.07,0-.08,0-.15,0-.23a5,5,0,0,1,.16-.55c.11-.35-.16.26,0-.06,0-.1.1-.2.16-.3s.41-.52.16-.24a4.86,4.86,0,0,1,.38-.41s.28-.26.1-.1.11-.07.12-.08a4.91,4.91,0,0,1,.59-.33s-.3.11,0,0l.33-.11.22,0,.15,0c-.25,0,.13,0,.15,0h.6c.34,0-.24-.06.06,0l.67.19c.33.11-.16-.12,0,0a2.27,2.27,0,0,0,.34.19l.19.12.19.13c-.16-.12-.17-.13-.05,0l.4.39c.26.26-.16-.25,0,0,.06.1.13.19.19.28s.1.2.16.3c.15.27-.08-.26,0,.06s.12.44.18.66,0,.28,0,0c0,.16,0,.32,0,.48a1.5,1.5,0,1,0,3,0,5.9,5.9,0,0,0-3.86-5.46,5.8,5.8,0,0,0-6.34,1.69,5.8,5.8,0,1,0,10.2,3.77,1.51,1.51,0,0,0-1.5-1.5A1.53,1.53,0,0,0,966.46,122.15Z"/><path class="cls-2" d="M1167.89,15.29a5.25,5.25,0,1,1-4.36-5.18,5.3,5.3,0,0,1,4.36,5.18c0,1.93,3,1.94,3,0a8.39,8.39,0,0,0-5.43-7.75,8.26,8.26,0,0,0-9.92,12,8.25,8.25,0,0,0,15.35-4.22C1170.92,13.36,1167.92,13.36,1167.89,15.29Z"/><path class="cls-2" d="M1153.15,35.56a5.87,5.87,0,1,1-4.86-5.79,5.91,5.91,0,0,1,4.86,5.79c0,1.93,3,1.93,3,0a9,9,0,0,0-5.83-8.33,8.87,8.87,0,0,0-10.66,12.86,8.87,8.87,0,0,0,16.49-4.53A1.5,1.5,0,0,0,1153.15,35.56Z"/><path class="cls-2" d="M1093.63,449.86v10.4a1.44,1.44,0,1,0,2.87,0v-10.4a1.44,1.44,0,1,0-2.87,0Z"/><path class="cls-2" d="M1091,456.77h8.76a1.44,1.44,0,1,0,0-2.87H1091a1.44,1.44,0,1,0,0,2.87Z"/><path class="cls-2" d="M1128.93,485.63a8.94,8.94,0,1,1-7.33-8.8,9,9,0,0,1,7.33,8.8c0,1.93,3,1.93,3,0a11.94,11.94,0,1,0-9.68,11.72,12.11,12.11,0,0,0,9.68-11.72C1132,483.7,1129,483.7,1128.93,485.63Z"/><path class="cls-2" d="M1135.07,449.39a4.64,4.64,0,0,1-8.3,2.87c.12.14,0-.06,0-.07s-.18-.27-.27-.41l-.15-.28s-.22-.45-.12-.23a4.68,4.68,0,0,1-.37-1.45,4.57,4.57,0,0,1,.64-2.81,4.64,4.64,0,0,1,8.62,2.38c0,1.93,3,1.94,3,0a7.75,7.75,0,0,0-5-7.18,7.65,7.65,0,0,0-8.43,2.26,7.63,7.63,0,1,0,13.47,4.92C1138.1,447.46,1135.1,447.46,1135.07,449.39Z"/><path class="cls-2" d="M1152.27,480.72c0,.08,0,.17,0,.25,0,.25,0-.12,0-.15,0,.12,0,.28-.09.4a1.13,1.13,0,0,0-.08.24s.16-.34.05-.14-.16.28-.25.41.21-.2.06-.08a.93.93,0,0,0-.13.15l-.12.11c-.1.1-.28.15.06,0-.11.06-.22.15-.33.22l-.15.07c-.24.14.36-.11,0,0a3,3,0,0,1-.4.11c-.16,0-.22,0,.11,0a1.48,1.48,0,0,0-.21,0,3.09,3.09,0,0,1-.43,0c-.2,0,.4.08.11,0l-.24,0-.23-.08c-.14,0-.08-.11.13.06a2.37,2.37,0,0,0-.35-.19l-.17-.12c-.16-.09.29.26.08.06a2.65,2.65,0,0,0-.33-.34c.2.15.17.24.09.11a1.37,1.37,0,0,1-.13-.2,1,1,0,0,1-.08-.14c-.08-.14-.06-.3,0,.07,0-.14-.09-.26-.12-.39a1,1,0,0,1,0-.17c-.06-.28,0,.4,0,0,0-.13,0-.26,0-.39s.1-.34,0,.07l0-.17c0-.13.07-.26.11-.39.1-.29-.17.32,0,.06l.12-.21a1.63,1.63,0,0,1,.11-.17c.09-.15.17-.09-.07.08a3.9,3.9,0,0,0,.28-.29s.24-.19,0,0,0,0,0,0,.31-.14.42-.24-.36.13-.13.06l.23-.08c.08,0,.48-.08.21-.05s.18,0,.26,0h.22c.29,0-.34-.07-.07,0l.47.13c.28.09-.25-.15-.09,0s.17.08.25.13l.13.09c.33.22-.16-.17,0,0l.29.28c.21.21-.2-.3,0-.05l.13.2.12.21c.13.24-.11-.33,0-.06s.09.31.13.48,0,.16,0-.16c0,.11,0,.24,0,.35a1.5,1.5,0,0,0,3,0,4.67,4.67,0,0,0-3.07-4.32,4.58,4.58,0,0,0-5,1.32,4.57,4.57,0,1,0,8,3,1.5,1.5,0,0,0-3,0Z"/><path class="cls-2" d="M1131.06,754v24.65c0,3.22,5,3.22,5,0V754c0-3.21-5-3.22-5,0Z"/><path class="cls-2" d="M1145.88,763.86h-24.65c-3.22,0-3.22,5,0,5h24.65c3.22,0,3.22-5,0-5Z"/><path class="cls-2" d="M1150.48,718.25v10.4a1.44,1.44,0,1,0,2.87,0v-10.4a1.44,1.44,0,1,0-2.87,0Z"/><path class="cls-2" d="M1147.81,725.16h8.76a1.44,1.44,0,1,0,0-2.87h-8.76a1.46,1.46,0,0,0-1.44,1.43,1.47,1.47,0,0,0,1.44,1.44Z"/><path class="cls-2" d="M1125.37,740.17a7.71,7.71,0,1,1-6.35-7.6,7.79,7.79,0,0,1,6.35,7.6c0,1.92,3,1.93,3,0a10.86,10.86,0,0,0-7-10,10.71,10.71,0,1,0,7,10A1.5,1.5,0,0,0,1125.37,740.17Z"/><path class="cls-2" d="M1125.66,715.37a4,4,0,0,1-.81,2.44c-.25.37.1-.11-.07.09l-.25.27c-.06.07-.13.13-.2.2s-.37.31-.14.13a5.69,5.69,0,0,1-.6.4l-.26.13c-.16.08-.18.08,0,0l-.21.08c-.23.07-.47.14-.71.19-.06,0-.38.07-.12,0a2.43,2.43,0,0,1-.38,0,5,5,0,0,1-.77,0c-.28,0,.33.08-.12,0l-.44-.1-.42-.14s-.26-.11,0,0a4.89,4.89,0,0,1-.64-.34,3.67,3.67,0,0,1-1-.9c.15.17,0,0,0,0l-.24-.37-.14-.25s-.21-.44-.09-.17a4.1,4.1,0,0,1-.23-.7l-.06-.29c0-.18,0-.2,0,0,0-.07,0-.15,0-.22,0-.24,0-.47,0-.7,0,0,.06-.5,0-.2l.06-.3a5.64,5.64,0,0,1,.21-.7c.14-.42-.14.2.08-.18.07-.13.13-.26.2-.38l.2-.31s.23-.28.07-.1c.15-.18.32-.35.49-.52,0,0,.34-.28.18-.16s.22-.15.2-.14a5.08,5.08,0,0,1,.76-.42c-.06,0-.24.08,0,0l.42-.14.29-.07s.45-.08.24,0,.29,0,.26,0h.38l.39,0c.34,0-.1,0,.2,0a8.24,8.24,0,0,1,.85.24c.43.15-.13-.07.11,0a3.21,3.21,0,0,1,.45.24l.24.15.24.17c-.11-.09-.1-.07,0,0l.51.51c.3.31-.12-.21.12.14.08.12.17.24.24.37l.21.38c.14.26,0-.14.08.18s.17.56.24.85c0,0,0,.29,0,0a4.16,4.16,0,0,1,0,.61c0,1.93,3,1.94,3,0a7.14,7.14,0,0,0-4.64-6.61,7,7,0,0,0-7.74,2.07,7,7,0,1,0,12.38,4.54C1128.69,713.44,1125.69,713.44,1125.66,715.37Z"/><path class="cls-2" d="M793,564.59V575a1.44,1.44,0,1,0,2.88,0v-10.4a1.44,1.44,0,1,0-2.88,0Z"/><path class="cls-2" d="M790.32,571.5h8.77a1.44,1.44,0,0,0,0-2.87h-8.77a1.44,1.44,0,0,0-1.43,1.43,1.46,1.46,0,0,0,1.43,1.44Z"/><path class="cls-2" d="M822.27,583.78V601.9a2.5,2.5,0,1,0,5,0V583.78a2.5,2.5,0,0,0-5,0Z"/><path class="cls-2" d="M817.62,595.82h15.26a2.5,2.5,0,0,0,0-5H817.62a2.5,2.5,0,0,0,0,5Z"/><path class="cls-2" d="M873.91,561.39a7.71,7.71,0,1,1-6.35-7.6,7.79,7.79,0,0,1,6.35,7.6c0,1.93,3,1.93,3,0a10.87,10.87,0,0,0-7-10,10.71,10.71,0,1,0,7,10C876.94,559.46,873.94,559.46,873.91,561.39Z"/><path class="cls-2" d="M847.42,632.25a4.64,4.64,0,0,1-8.3,2.87l-.06-.07c-.09-.13-.18-.27-.26-.41a2.54,2.54,0,0,1-.16-.28s-.21-.45-.12-.23a5.32,5.32,0,0,1-.37-1.45,4.57,4.57,0,0,1,.65-2.81,4.64,4.64,0,0,1,8.62,2.38c0,1.93,3,1.94,3,0a7.75,7.75,0,0,0-5-7.18,7.65,7.65,0,0,0-9.17,11.09,7.64,7.64,0,0,0,14.21-3.91C850.45,630.32,847.45,630.32,847.42,632.25Z"/><path class="cls-2" d="M886.72,170.06l-19.39,17.51c-2.37,2.14-4.69,4.79-7.31,6.6-4,2.74-7,1.06-9.68-1.87C837,178,824,163.19,810.91,148.64c-3.72-4.12-8.79-8.3-11.64-13.1-3-5,1.55-8.08,4.77-11l12.15-11c3.31-3,6.53-6.13,9.95-9,3.19-2.67,6.61-2.86,9.68.21,5.17,5.19,9.88,11,14.79,16.38l25.46,28.2c3.93,4.36,16.74,14.3,10.65,20.67-3,3.13,1.59,8.09,4.6,4.94,5-5.22,5.4-12.38.73-18-1.69-2-3.56-4-5.33-5.91l-24.14-26.73-20.51-22.72c-2.53-2.79-5.12-5.22-9-5.89-5.35-.91-9.24,1.85-12.94,5.2-7.93,7.16-16.05,14.16-23.81,21.5-4.64,4.39-6.33,10.91-2.82,16.6a40,40,0,0,0,4.67,5.49l45.08,49.92c2.24,2.48,4.35,5.28,7.44,6.75,6.11,2.92,11.51.1,16-4L891.32,175C894.55,172.09,889.94,167.15,886.72,170.06Z"/><path class="cls-2" d="M823.2,162.9l36.23-32.71c.71-.65-.35-1.71-1.06-1.06l-36.23,32.71c-.72.65.34,1.71,1.06,1.06Z"/><path class="cls-2" d="M784.4,86.37Q796,99.2,807.54,112c1.62,1.79,4.27-.87,2.65-2.65q-11.57-12.82-23.14-25.63c-1.62-1.79-4.26.87-2.65,2.65Z"/><path class="cls-2" d="M876.81,191l16.21,18c2.91,3.22,7.84-1.38,4.93-4.61l-16.21-17.95c-2.91-3.22-7.85,1.38-4.93,4.61Z"/><path class="cls-2" d="M885,230.07l35.34-31.92c5.39-4.86-2.59-12.8-8-8L877,222.11c-5.39,4.86,2.59,12.8,8,8Z"/><path class="cls-2" d="M813.73,109.18l-6.84,6.18a4.19,4.19,0,0,1-5.9-.31l-2.58-2.86a4.16,4.16,0,0,1,.3-5.89l6.84-6.18a4.17,4.17,0,0,1,5.89.3l2.59,2.87A4.17,4.17,0,0,1,813.73,109.18Z"/><path class="cls-2" d="M1288.22,373.67l21.84-14.34c2.7-1.77,5.37-3.88,8.23-5.41,4.17-2.22,7.25-.5,9.51,2.95q16.21,24.67,32.42,49.37c3,4.62,7.52,9.58,9.57,14.76,2.14,5.42-3.16,7.91-6.76,10.28l-13.88,9.11c-5.2,3.42-14.72,12.66-20.13,5.59-4.59-6-8.41-12.81-12.55-19.12l-20.81-31.69-6.88-10.48c-2.54-3.88-4.56-7.91.18-11.54,3.44-2.64-1.19-7.56-4.61-4.94-9.54,7.32-3.66,16.4,1.28,23.92l19.86,30.26q8.33,12.66,16.63,25.32c2.08,3.16,4.21,6.06,8,7.35,5.2,1.77,9.42-.33,13.62-3.09,8.89-5.84,17.92-11.51,26.69-17.52,5.46-3.74,8.39-10.2,5.34-16.58a52.44,52.44,0,0,0-3.67-5.76q-18.39-28-36.77-56c-1.67-2.55-3.29-5.6-5.73-7.46-5.64-4.32-11.68-2.52-17,1l-27.52,18.07C1281.49,370.05,1284.59,376.05,1288.22,373.67Z"/><path class="cls-2" d="M1350.29,390.21,1309.49,417c-.8.53,0,1.83.76,1.3l40.8-26.79c.81-.53,0-1.83-.76-1.3Z"/><path class="cls-2" d="M1377,472l-19-28.86c-1.32-2-4.57-.14-3.24,1.89l19,28.86c1.32,2,4.57.13,3.24-1.89Z"/><path class="cls-2" d="M1301.74,354.68l-13.28-20.22c-2.36-3.6-8.36-.5-6,3.13l13.28,20.22c2.36,3.6,8.36.5,6-3.13Z"/><path class="cls-2" d="M1299.92,314.12l-39.8,26.14c-6,4-.4,13.7,5.67,9.71l39.81-26.14c6-3.95.4-13.7-5.68-9.71Z"/><path class="cls-2" d="M1351.38,444.8l7.7-5.06a4.17,4.17,0,0,1,5.78,1.2l2.12,3.22a4.18,4.18,0,0,1-1.2,5.78l-7.7,5.06a4.17,4.17,0,0,1-5.78-1.2l-2.12-3.23A4.16,4.16,0,0,1,1351.38,444.8Z"/><path class="cls-2" d="M706.41,414.82a35.72,35.72,0,1,1-2-45.19c11.45,12.74,11.65,31.46,2,45.19-3.34,4.72,4.33,9.43,7.67,4.71,10.74-15.2,11.26-35.94.6-51.35s-30.3-22.9-48.47-17.93a44.68,44.68,0,0,0-7.34,83.62c19.61,9.15,42.31,2.63,55.21-14.34C717.57,414.93,709.89,410.23,706.41,414.82Z"/><path class="cls-2" d="M644.23,372.08l23.68,17.35a2.52,2.52,0,0,0,3.42-.9,2.56,2.56,0,0,0-.9-3.42l-23.67-17.35a2.53,2.53,0,0,0-3.43.9,2.56,2.56,0,0,0,.9,3.42Z"/><path class="cls-2" d="M676.91,396q15.62,11.46,31.25,22.9a2.51,2.51,0,0,0,3.42-.89,2.56,2.56,0,0,0-.9-3.42L679.43,391.7a2.5,2.5,0,1,0-2.52,4.32Z"/><path class="cls-2" d="M-1.54,294.29a52.32,52.32,0,0,1,10.65,10.1c1.5,1.85,4.83,1.63,6.36,0,9.58-10.18,22.7-19.57,37.48-17.45,14.48,2.08,25.41,13.46,29,27.29,1.44,5.6,10.12,3.23,8.68-2.4-4.29-16.77-17.82-30.74-35.24-33.57C37.25,275.32,21.06,285.32,9.11,298h6.36A60.06,60.06,0,0,0,3,286.52c-4.76-3.32-9.26,4.48-4.54,7.77Z"/><path class="cls-2" d="M78,341.7c-9.09,17.27-25.81,28.64-41.8,39-9.12,5.9-18.7,10.95-27.95,16.61h4.54a310.45,310.45,0,0,1-41.42-26.39c-12.29-9.27-24.19-19-30.89-33.24-2.47-5.23-10.23-.67-7.77,4.54,6.63,14.06,18,24,30.08,33.38A314,314,0,0,0,3.22,402.38c3.93,2.17,6.76,4.16,10.88,2,3-1.59,5.94-3.31,8.87-5,10.39-6,20.6-12.42,30.35-19.44,12.85-9.24,24.94-19.41,32.43-33.65,2.7-5.12-5.07-9.67-7.77-4.54Z"/><path class="cls-2" d="M-90.53,329.78h50.28l-2.5-2q4,17.13,8,34.28a2.26,2.26,0,0,0,4.46,0q10.49-42.47,21-84.92,1.51-6.1,3-12.22l-4.47,0q9,44,18,88,1.27,6.27,2.57,12.54c.4,2,3.53,2.91,4.31.59Q23.84,337,33.55,307.84l-4.31-.59,10.29,43.42a2.27,2.27,0,0,0,4.31.59q4-8.56,8-17.14L50,335.49H110.6c2.9,0,2.32-4.47-.55-4.47H49.49a2.24,2.24,0,0,0-1.81,1.37q-4,8.58-8,17.14l4.31.59q-5.13-21.71-10.28-43.42c-.46-1.95-3.52-3-4.31-.59L10,364.39l4.31.59-18-88Q-5,270.69-6.29,264.42a2.26,2.26,0,0,0-4.46,0q-10.48,42.45-21,84.91-1.52,6.12-3,12.23l4.46,0q-4-17.15-8-34.28a2.34,2.34,0,0,0-2.5-2H-91.08c-2.89,0-2.31,4.47.55,4.47Z"/><path class="cls-2" d="M43.2,21.14c5.09-8.9,7.56-20,10.79-29.66,2-6,4-12,6.07-18,.39-1.11,1.36-6,2.35-6.56.49-.27,4.34,1.43,4.92,1.63l7.31,2.5L82-26.41c1.78.6,5.2,2.92,4.82-.11.15,1.21-.79,3.1-1.12,4.23-1.42,4.8-3,9.54-4.61,14.27C77.62,2.33,74,12.62,70.45,22.94c-2,5.79-1.19,10.25-.24,16.31,2,12.89,4.36,25.74,6.68,38.58q1.68,9.32,3.4,18.62c1.22,6.58,4.7,17.86-5.49,18.07-4.48.09-9.19-1.93-13.43-3.18q-8.19-2.41-16.3-5.08c-10.43-3.4-20.76-7-31.07-10.77Q5.24,92.31-3.5,89.06c-5.14-1.9-10.89-3.37-15.46-6.5-3.84-2.63-7.27-6.77-5.11-11.55,1.86-4.13,6.06-7.29,9.52-10C3,47.05,21.91,34.94,40.85,23c4.48-2.82.68-10.16-3.82-7.32C18.2,27.55-.42,39.68-18.06,53.28c-6.52,5-15,11.58-15.06,20.68-.06,8.57,7.34,14.93,14.52,18.17,11.5,5.19,23.86,9,35.74,13.26,11.46,4.1,23,8.07,34.63,11.67,8.9,2.77,20.8,8.44,30.1,4.34,8.65-3.81,9-13.08,7.52-21.18-2.6-14.33-5.27-28.65-7.78-43-1.2-6.87-2.4-13.74-3.47-20.62-.31-2-.62-4-.87-6-.12-.88-.16-1.34-.15-1.31-.07-1.2-.17.31-.09,0,3.1-10.06,6.88-20,10.28-29.91,2-6,4.07-12,5.91-18,1.21-3.94,3.51-9.55-.53-12.59-2.22-1.67-5.75-2.28-8.31-3.15l-8.19-2.8c-4.35-1.49-10.86-5.21-15.55-4.21-6.73,1.44-8.42,12.21-10.28,17.7C47.58-15.42,44.87-7.18,42.05,1c-1.75,5.1-3.38,11.4-5.89,15.79-2.63,4.6,4.39,9,7,4.33Z"/><path class="cls-2" d="M0,49.39C25.53,57.94,50.85,67,76.18,76c5,1.79,7.37-6.13,2.37-7.91C53.22,59.09,27.9,50,2.4,41.48-2.64,39.79-5,47.7,0,49.39Z"/><path class="cls-2" d="M267.77,258.07a37.77,37.77,0,0,1-17.19-42.15c2.07-7.51,6.92-14.31,10.84-21L279,165.16c3.59-6.1,6.92-12.5,10.92-18.35,9.58-14,28-19.57,43.88-13.77,15.61,5.73,25.49,21.7,24.23,38.17-.73,9.4-5.63,16.87-10.25,24.7l-17.24,29.25c-4.19,7.1-8.12,14.46-12.65,21.35-10.91,16.55-33.1,21.21-50.11,11.56-5-2.85-9.77,4.8-4.72,7.67a47.11,47.11,0,0,0,52-3.19c8.25-6.27,12.88-15.25,18-24q9.75-16.56,19.52-33.12c4.89-8.29,10.91-16.75,13.2-26.21a46.46,46.46,0,0,0-66.84-52.17c-10.72,5.68-16.78,15-22.69,25l-19.16,32.5c-5.34,9-12.29,18.53-15.13,28.76a46.9,46.9,0,0,0,21.09,52.4C268,268.67,272.78,261,267.77,258.07Z"/><path class="cls-2" d="M267.74,182.09l30.85,18.18c5,2.93,9.72-4.72,4.71-7.67l-30.84-18.18c-5-2.94-9.73,4.71-4.72,7.67Z"/><path class="cls-2" d="M313.41,209l23.73,14c5,2.93,9.72-4.72,4.71-7.67l-23.72-14c-5-2.93-9.72,4.72-4.72,7.67Z"/><path class="cls-2" d="M175.44,44.56V55a1.44,1.44,0,1,0,2.87,0V44.56a1.44,1.44,0,1,0-2.87,0Z"/><path class="cls-2" d="M172.77,51.47h8.76a1.44,1.44,0,0,0,0-2.87h-8.76A1.44,1.44,0,0,0,171.33,50a1.46,1.46,0,0,0,1.44,1.44Z"/><path class="cls-2" d="M210.74,80.33a8.93,8.93,0,1,1-7.34-8.81,9,9,0,0,1,7.34,8.81c0,1.93,3,1.93,3,0a11.94,11.94,0,1,0-9.68,11.72,12.12,12.12,0,0,0,9.68-11.72A1.5,1.5,0,0,0,210.74,80.33Z"/><path class="cls-2" d="M216.88,44.09a4.64,4.64,0,0,1-8.3,2.87c.12.14-.05-.06-.06-.08s-.18-.26-.26-.4a2.54,2.54,0,0,1-.16-.28s-.22-.45-.12-.23a5.41,5.41,0,0,1-.37-1.45,4.62,4.62,0,0,1,.65-2.82,4.64,4.64,0,0,1,8.62,2.39c0,1.93,3,1.94,3,0a7.75,7.75,0,0,0-5-7.18,7.66,7.66,0,0,0-8.43,2.25,7.64,7.64,0,1,0,13.47,4.93C219.91,42.16,216.91,42.16,216.88,44.09Z"/><path class="cls-2" d="M234.08,75.41a2.26,2.26,0,0,0,0,.26c0,.24,0-.13,0-.15a2.6,2.6,0,0,0-.1.4c0,.08-.07.16-.08.23s.17-.34.05-.13-.15.27-.24.41.2-.21.06-.08-.09.1-.14.15l-.11.11c-.11.1-.28.15.06,0-.12.06-.22.15-.34.22l-.14.07c-.24.14.36-.11,0,0l-.39.11c-.17,0-.23,0,.11,0a1.62,1.62,0,0,0-.22,0,3,3,0,0,1-.42,0c-.21,0,.4.08.11,0a1.83,1.83,0,0,1-.25-.06l-.23-.07c-.14,0-.08-.11.13.06a4,4,0,0,0-.35-.2c-.06,0-.11-.08-.16-.11s.28.26.08.06a3.55,3.55,0,0,0-.33-.34c.2.15.16.23.08.11l-.13-.2a1,1,0,0,0-.08-.14c-.07-.14-.06-.3,0,.06,0-.13-.09-.25-.13-.39l0-.16c-.07-.28,0,.39,0,0a2.54,2.54,0,0,1,0-.39c0-.14.09-.34,0,.07a1,1,0,0,0,0-.17c0-.13.08-.26.12-.39.09-.29-.17.32,0,.06l.11-.21a1.63,1.63,0,0,0,.11-.17c.09-.15.17-.09-.06.08.09-.07.18-.21.27-.29s.25-.19,0,0,0,0,0,0a3.31,3.31,0,0,0,.42-.24s-.36.13-.13.06l.23-.08c.08,0,.49-.09.21-.05s.19,0,.27,0h.21c.3,0-.33-.07-.07,0a3.76,3.76,0,0,1,.48.13c.27.09-.26-.15-.1,0l.25.13.14.09c.33.22-.17-.17,0,0s.19.18.28.28-.2-.3,0,0l.13.2.11.21c.13.23-.11-.34,0-.06s.09.31.13.47,0,.17,0-.15a1.94,1.94,0,0,0,0,.34,1.5,1.5,0,0,0,3,0A4.65,4.65,0,0,0,234,71.1a4.55,4.55,0,0,0-4.94,1.32,4.57,4.57,0,1,0,8,3,1.5,1.5,0,0,0-3,0Z"/><path class="cls-2" d="M212.86,348.73v24.65c0,3.22,5,3.22,5,0V348.73c0-3.22-5-3.22-5,0Z"/><path class="cls-2" d="M227.69,358.56H203c-3.22,0-3.23,5,0,5h24.65c3.21,0,3.22-5,0-5Z"/><path class="cls-2" d="M232.29,312.94v10.41a1.44,1.44,0,1,0,2.87,0V312.94a1.44,1.44,0,0,0-2.87,0Z"/><path class="cls-2" d="M229.62,319.86h8.76a1.44,1.44,0,0,0,0-2.87h-8.76a1.44,1.44,0,1,0,0,2.87Z"/><path class="cls-2" d="M207.17,334.86a7.71,7.71,0,1,1-6.34-7.59,7.78,7.78,0,0,1,6.34,7.59c0,1.93,3,1.94,3,0a10.71,10.71,0,1,0-8.67,10.52,10.85,10.85,0,0,0,8.67-10.52C210.2,332.93,207.2,332.93,207.17,334.86Z"/><path class="cls-2" d="M207.47,310.07a4,4,0,0,1-.81,2.44c-.26.37.1-.11-.08.09l-.24.27-.21.2s-.36.31-.13.13a3.94,3.94,0,0,1-.61.39l-.26.14c-.16.07-.17.08,0,0l-.2.07a6.29,6.29,0,0,1-.71.2c-.07,0-.39.06-.13,0a2.34,2.34,0,0,1-.38,0,6.43,6.43,0,0,1-.76,0c-.28,0,.33.08-.13,0l-.43-.1-.42-.14s-.26-.12-.05,0a5.62,5.62,0,0,1-.64-.34,3.7,3.7,0,0,1-1-.91c.14.18,0,0,0,0a2.92,2.92,0,0,1-.24-.37,2,2,0,0,1-.14-.25s-.21-.44-.1-.17a5.68,5.68,0,0,1-.22-.7c0-.1-.05-.19-.07-.29s0-.2,0-.05a1.64,1.64,0,0,1,0-.23,5.3,5.3,0,0,1,0-.69s.07-.51,0-.2c0-.1,0-.2.05-.3s.13-.47.21-.71c.14-.41-.13.21.08-.17.07-.13.13-.26.21-.39l.2-.3c0-.05.23-.29.07-.1a4.79,4.79,0,0,1,.49-.52s.33-.28.18-.16l.19-.14a5.63,5.63,0,0,1,.76-.42c-.06,0-.23.07.05,0l.42-.14.29-.07s.44-.08.24-.05.29,0,.25,0h.39l.38,0c.34,0-.1,0,.2,0s.57.14.86.24-.13-.07.11.05a4.92,4.92,0,0,1,.45.24l.24.15.24.17c-.12-.09-.11-.08,0,0l.51.5c.3.31-.13-.21.12.15.08.12.16.24.23.36s.14.26.21.39,0-.14.08.17.17.57.24.86c0,0,.05.29,0,0a6.08,6.08,0,0,1,0,.61c0,1.93,3,1.93,3,0a7.15,7.15,0,0,0-4.65-6.61,7,7,0,0,0-7.73,2.07,7,7,0,1,0,12.38,4.54C210.5,308.14,207.5,308.14,207.47,310.07Z"/><path class="cls-2" d="M370-31.63,391.86-46c2.71-1.78,5.38-3.88,8.24-5.41,4.16-2.22,7.25-.5,9.51,2.94Q425.81-23.75,442,.94c3,4.62,7.52,9.57,9.57,14.76,2.14,5.42-3.17,7.91-6.77,10.28L431,35.09c-5.21,3.42-14.73,12.66-20.13,5.59-4.59-6-8.41-12.81-12.56-19.13l-20.8-31.68q-3.45-5.23-6.88-10.48c-2.55-3.88-4.57-7.91.17-11.54,3.45-2.65-1.18-7.56-4.6-4.94-9.54,7.32-3.66,16.4,1.27,23.92L387.3,17.09l16.63,25.32c2.07,3.16,4.21,6.06,8,7.35,5.2,1.77,9.43-.33,13.63-3.09,8.89-5.84,17.91-11.51,26.69-17.52,5.45-3.74,8.38-10.21,5.33-16.58a50.91,50.91,0,0,0-3.66-5.76l-36.78-56c-1.67-2.54-3.29-5.59-5.72-7.45-5.64-4.32-11.69-2.53-17,1L366.9-37.61C363.29-35.25,366.39-29.25,370-31.63Z"/><path class="cls-2" d="M432.1-15.09,391.3,11.7c-.81.53-.06,1.83.75,1.3l40.81-26.79c.8-.53.05-1.83-.76-1.3Z"/><path class="cls-2" d="M458.78,66.67q-9.46-14.43-18.95-28.86c-1.32-2-4.56-.13-3.23,1.9q9.47,14.43,18.95,28.86c1.31,2,4.56.13,3.23-1.9Z"/><path class="cls-2" d="M433.18,39.49l7.71-5.05a4.16,4.16,0,0,1,5.77,1.19l2.12,3.23a4.17,4.17,0,0,1-1.19,5.78l-7.71,5a4.18,4.18,0,0,1-5.78-1.19L432,45.27A4.18,4.18,0,0,1,433.18,39.49Z"/></pattern></defs><g id="Layer_2" data-name="Layer 2"><g id="BG"><g class="cls-3"><rect class="cls-4" width="9498.55" height="7123.91"/></g></g></g></svg>