<!--?xml version="1.0" standalone="no"?-->
              <svg id="sw-js-blob-svg" viewBox="0 0 100 100" xmlns="http://www.w3.org/2000/svg" version="1.1">
                    <defs> 
                        <linearGradient id="sw-gradient" x1="0" x2="1" y1="1" y2="0">
                            <stop id="stop1" stop-color="rgba(248, 117, 55, 1)" offset="0%"></stop>
                            <stop id="stop2" stop-color="rgba(251, 168, 31, 1)" offset="100%"></stop>
                        </linearGradient>
                    </defs>
                <path fill="url(#sw-gradient)" d="M17.3,-28.9C23.6,-26.2,30.8,-24.1,34.7,-19.3C38.7,-14.6,39.4,-7.3,38.2,-0.7C37.1,6,34.1,12,30.5,17.3C26.9,22.6,22.6,27.2,17.4,30.7C12.3,34.2,6.1,36.5,-0.4,37.2C-7,38,-14,37.2,-19.4,33.8C-24.8,30.5,-28.6,24.6,-33.3,18.5C-38.1,12.5,-43.7,6.2,-44.4,-0.4C-45,-7,-40.6,-14,-36.4,-20.8C-32.1,-27.7,-27.9,-34.4,-21.9,-37.2C-15.9,-40,-7.9,-38.9,-1.2,-36.8C5.5,-34.6,10.9,-31.5,17.3,-28.9Z" width="100%" height="100%" transform="translate(50 50)" stroke-width="0" style="transition: all 0.3s ease 0s;"></path>
              </svg>